<svg xmlns="http://www.w3.org/2000/svg" xmlns:xlink="http://www.w3.org/1999/xlink" width="20" height="18" viewBox="0 0 20 18">
  <defs>
    <path id="icon_logout-a" d="M24.6,21 L14,21 C13.4,21 13,20.6 13,20 C13,19.4 13.4,19 14,19 L24.6,19 L22.3,16.7 C21.9,16.3 21.9,15.7 22.3,15.3 C22.7,14.9 23.3,14.9 23.7,15.3 L27.5259259,19.1259259 C27.8222222,19.2888889 28,19.6 28,20 C28,20.4 27.8222222,20.7111111 27.5259259,20.8740741 L23.7,24.7 C23.5,24.9 23.3,25 23,25 C22.7,25 22.5,24.9 22.3,24.7 C21.9,24.3 21.9,23.7 22.3,23.3 L24.6,21 Z M19,29 L9,29 C8.4,29 8,28.6 8,28 L8,12 C8,11.4 8.4,11 9,11 L19,11 C19.6,11 20,11.4 20,12 L20,17 C20,17.6 19.6,18 19,18 C18.4,18 18,17.6 18,17 L18,13 L10,13 L10,27 L18,27 L18,24 C18,23.4 18.4,23 19,23 C19.6,23 20,23.4 20,24 L20,28 C20,28.6 19.6,29 19,29 Z"/>
  </defs>
  <g fill="none" fill-rule="evenodd" transform="translate(-8 -11)">
    <use fill="#FFF" transform="matrix(-1 0 0 1 36 0)" xlink:href="#icon_logout-a"/>
  </g>
</svg>
