<svg xmlns="http://www.w3.org/2000/svg" xmlns:xlink="http://www.w3.org/1999/xlink" width="18" height="18" viewBox="0 0 18 18">
  <defs>
    <path id="icon_library-a" d="M28,21 L12,21 C11.45,21 11,21.45 11,22 L11,28 C11,28.55 11.45,29 12,29 L28,29 C28.55,29 29,28.55 29,28 L29,22 C29,21.45 28.55,21 28,21 Z M15,27 C13.9,27 13,26.1 13,25 C13,23.9 13.9,23 15,23 C16.1,23 17,23.9 17,25 C17,26.1 16.1,27 15,27 Z M28,11 L12,11 C11.45,11 11,11.45 11,12 L11,18 C11,18.55 11.45,19 12,19 L28,19 C28.55,19 29,18.55 29,18 L29,12 C29,11.45 28.55,11 28,11 Z M15,17 C13.9,17 13,16.1 13,15 C13,13.9 13.9,13 15,13 C16.1,13 17,13.9 17,15 C17,16.1 16.1,17 15,17 Z"/>
  </defs>
  <g fill="none" fill-rule="evenodd" transform="translate(-11 -11)">
    <use fill="currentColor" fill-rule="nonzero" xlink:href="#icon_library-a"/>
  </g>
</svg>
