<svg xmlns="http://www.w3.org/2000/svg" xmlns:xlink="http://www.w3.org/1999/xlink" width="18" height="18" viewBox="0 0 18 18">
  <defs>
    <path id="icon_logout-a" d="M21,11 L19,11 L19,21 L21,21 L21,11 Z M25.83,13.17 L24.41,14.59 C25.99,15.86 27,17.81 27,20 C27,23.87 23.87,27 20,27 C16.13,27 13,23.87 13,20 C13,17.81 14.01,15.86 15.58,14.58 L14.17,13.17 C12.23,14.82 11,17.26 11,20 C11,24.97 15.03,29 20,29 C24.97,29 29,24.97 29,20 C29,17.26 27.77,14.82 25.83,13.17 Z"/>
  </defs>
  <g fill="none" fill-rule="evenodd" transform="translate(-11 -11)">
    <use fill="currentColor" fill-rule="nonzero" xlink:href="#icon_logout-a"/>
  </g>
</svg>
