<svg xmlns:xlink="http://www.w3.org/1999/xlink" width="0" height="0" style="position:absolute"><symbol viewBox="0 0 24 30" id="icon_area" xmlns="http://www.w3.org/2000/svg"><defs><path d="M16.441 26.201l-3.34-4.504c-2.995-4.038-2.763-9.993.535-13.719C15.393 5.993 17.696 5 20 5c2.303 0 4.607.993 6.364 2.978 2.671 3.018 3.33 7.497 1.894 11.237l-4.88 6.966C28.36 26.728 32 28.454 32 30.5c0 2.485-5.373 4.5-12 4.5S8 32.985 8 30.5c0-2.02 3.551-3.73 8.441-4.299zm1.378 1.859C13.345 28.308 10 29.307 10 30.5c0 1.38 4.477 2.5 10 2.5s10-1.12 10-2.5c0-1.204-3.403-2.209-7.935-2.447L20 31l-2.18-2.94z" id="aaa"/></defs><use xlink:href="#aaa" transform="translate(-8 -5)"/></symbol><symbol viewBox="0 0 24 24" id="icon_arrow_down" xmlns="http://www.w3.org/2000/svg"><path d="M7 10l5 5 5-5z"/><path d="M0 0h24v24H0z" fill="none"/></symbol><symbol viewBox="0 0 16 16" id="icon_arrow_left" xmlns="http://www.w3.org/2000/svg"><defs><path id="aca" d="M12 20l1.41 1.41L19 15.83V28h2V15.83l5.58 5.59L28 20l-8-8z"/></defs><use transform="matrix(0 1 1 0 -12 -12)" xlink:href="#aca"/></symbol><symbol viewBox="0 0 19 33" id="icon_cell_tower" xmlns="http://www.w3.org/2000/svg"><defs><path d="M27.036 24.92l.002-.002-.004-.005L21.902 4h-2.804l-5.132 20.913-.004.005.002.002L11 37h4.121l5.379-5.453L25.879 37H30l-2.964-12.08zm-12.083 8.108l1.396-5.69 2.108 2.137-3.504 3.553zm2.21-9.008l1.439-5.863h3.796l1.439 5.863-3.337 3.383-3.337-3.383zm5.38 5.455l2.108-2.137 1.396 5.69-3.504-3.553z" id="ada"/></defs><use xlink:href="#ada" transform="translate(-11 -4)"/></symbol><symbol viewBox="0 0 24 24" id="icon_check" xmlns="http://www.w3.org/2000/svg"><path fill="none" d="M0 0h24v24H0z"/><path d="M9 16.2L4.8 12l-1.4 1.4L9 19 21 7l-1.4-1.4L9 16.2z"/></symbol><symbol viewBox="0 0 23 23" id="icon_close" xmlns="http://www.w3.org/2000/svg"><defs><path d="M19.667 19.667v-5.84A.83.83 0 0 1 20.5 13c.463 0 .833.37.833.828v5.839h5.84A.83.83 0 0 1 28 20.5c0 .463-.37.833-.828.833h-5.839v5.84A.83.83 0 0 1 20.5 28a.829.829 0 0 1-.833-.828v-5.839h-5.84A.83.83 0 0 1 13 20.5c0-.463.37-.833.828-.833h5.839z" id="afa"/></defs><use transform="rotate(45 26.864 5.136)" xlink:href="#afa" fill-rule="evenodd"/></symbol><symbol fill="none" viewBox="0 0 31 30" id="icon_close_pane" xmlns="http://www.w3.org/2000/svg"><path d="M25.933 4.453L5.57 24.816M25.933 24.816L5.57 4.453" stroke="#24A98E" stroke-linecap="round" stroke-linejoin="round"/></symbol><symbol viewBox="0 0 24 24" id="icon_cross" xmlns="http://www.w3.org/2000/svg"><path d="M19 6.41L17.59 5 12 10.59 6.41 5 5 6.41 10.59 12 5 17.59 6.41 19 12 13.41 17.59 19 19 17.59 13.41 12z"/><path d="M0 0h24v24H0z" fill="none"/></symbol><symbol viewBox="0 0 14 17" id="icon_delete" xmlns="http://www.w3.org/2000/svg"><defs><path d="M13 15.43v-.477c0-.701.573-.953 1.286-.953h1l.503-.299c.215-.432.66-1.701 1.147-1.701h6.123c.487 0 .932 1.269 1.152 1.701l.503.299h1c.713 0 1.286.252 1.286.953v.477a.64.64 0 0 1-.643.633H13.643A.64.64 0 0 1 13 15.43zm13.243 3.99l-1.093 8.207C25.064 28.961 23.94 29 22.584 29h-5.168c-1.355 0-2.48-.039-2.566-1.373l-1.093-8.207c-.021-.364.273-1.42.643-1.42h11.205c.365 0 .66 1.056.638 1.42z" id="aia"/></defs><use xlink:href="#aia" transform="translate(-13 -12)"/></symbol><symbol viewBox="0 0 12 16" id="icon_download" xmlns="http://www.w3.org/2000/svg"><defs><path id="aja" d="M21 26h5v2H14v-2h5V15.83l-3.59 3.58L14 18l6-6 6 6-1.42 1.42L21 15.83V26z"/></defs><use fill-rule="nonzero" xlink:href="#aja" transform="translate(-14 -12)"/></symbol><symbol fill="none" viewBox="0 0 16 13" id="icon_email" xmlns="http://www.w3.org/2000/svg"><path fill-rule="evenodd" clip-rule="evenodd" d="M7.666 5.464l7.205-3.79v-.242c0-.662-.562-1.203-1.357-1.203H2.004C1.21.229.502.769.502 1.432v.302l7.164 3.73z" fill="#fff"/><path fill-rule="evenodd" clip-rule="evenodd" d="M7.669 6.479L.502 2.747v7.478c0 .662.707 1.18 1.502 1.18h11.51c.795 0 1.357-.518 1.357-1.18V2.69L7.67 6.479z" fill="#fff"/></symbol><symbol viewBox="0 0 20 20" id="icon_error" xmlns="http://www.w3.org/2000/svg"><defs><path d="M20 10c-5.52 0-10 4.48-10 10s4.48 10 10 10 10-4.48 10-10-4.48-10-10-10zm1 15h-2v-2h2v2zm0-4h-2v-6h2v6z" id="ala"/></defs><use xlink:href="#ala" transform="translate(-10 -10)"/></symbol><symbol viewBox="0 0 24 30" id="icon_finite_diesel_generator" xmlns="http://www.w3.org/2000/svg"><defs><path d="M16.441 26.201l-3.34-4.504c-2.995-4.038-2.763-9.993.535-13.719C15.393 5.993 17.696 5 20 5c2.303 0 4.607.993 6.364 2.978 2.671 3.018 3.33 7.497 1.894 11.237l-4.88 6.966C28.36 26.728 32 28.454 32 30.5c0 2.485-5.373 4.5-12 4.5S8 32.985 8 30.5c0-2.02 3.551-3.73 8.441-4.299zm1.378 1.859C13.345 28.308 10 29.307 10 30.5c0 1.38 4.477 2.5 10 2.5s10-1.12 10-2.5c0-1.204-3.403-2.209-7.935-2.447L20 31l-2.18-2.94z" id="ama"/></defs><use xlink:href="#ama" transform="translate(-8 -5)"/></symbol><symbol viewBox="0 0 24 30" id="icon_finite_diesel_generator2" xmlns="http://www.w3.org/2000/svg"><defs><path d="M31.967 13.009L24.94 24.11l.892-7.87h-5.064L27.62 5l-.762 8.009h5.109zm-1.46 5.59a11.744 11.744 0 0 1-2.465 12.965A11.678 11.678 0 0 1 19.754 35c-3 0-5.999-1.145-8.288-3.436a11.74 11.74 0 0 1-.696-15.83L19.754 5l3.361 4.016-3.846 6.31-1.63 2.673h6.227l-.67 5.914-.863 7.601 4.09-6.462 4.085-6.454z" id="ana"/></defs><use xlink:href="#ana" transform="translate(-8 -5)"/></symbol><symbol viewBox="0 0 30 30" id="icon_infinite_diesel_generator" xmlns="http://www.w3.org/2000/svg"><defs><path d="M30.178 18.907c1.668 4.251.786 9.258-2.546 12.657A11.35 11.35 0 0 1 19.5 35a11.35 11.35 0 0 1-8.132-3.436c-4.214-4.3-4.51-11.17-.683-15.83L19.5 5l3.24 4.175a6.053 6.053 0 0 0-2.93 1.73C18.643 12.133 18 13.764 18 15.502c0 1.733.641 3.367 1.808 4.593C20.971 21.323 22.521 22 24.171 22a5.948 5.948 0 0 0 4.336-1.878l1.671-1.215zM13.698 30L15 28.744a6.988 6.988 0 0 1-2.153-4.72 6.945 6.945 0 0 1 1.715-4.883L13.152 18a8.678 8.678 0 0 0-2.143 6.103c.102 2.226 1.057 4.32 2.69 5.897zm19.86-19c1.185 0 2.3.468 3.14 1.317A4.497 4.497 0 0 1 38 15.499a4.492 4.492 0 0 1-1.303 3.182A4.376 4.376 0 0 1 33.557 20a4.385 4.385 0 0 1-3.142-1.319L29 17.306 27.565 18.7a4.365 4.365 0 0 1-3.122 1.3 4.38 4.38 0 0 1-3.141-1.319A4.493 4.493 0 0 1 20 15.501c0-1.203.463-2.332 1.303-3.182A4.383 4.383 0 0 1 24.443 11a4.38 4.38 0 0 1 3.142 1.319l1.414 1.375 1.436-1.396A4.375 4.375 0 0 1 33.557 11zm-7.065 6.43L28 16.012l-1.486-1.403a2.074 2.074 0 0 0-2.912-.02 1.978 1.978 0 0 0-.002 2.841c.773.76 2.12.76 2.893 0zm8.906-.007a1.992 1.992 0 0 0 .001-2.853c-.772-.76-2.12-.76-2.894.002L31 15.996l1.486 1.407c.814.801 2.14.784 2.913.02z" id="aoa"/></defs><use xlink:href="#aoa" transform="translate(-8 -5)"/></symbol><symbol fill="none" viewBox="0 0 21 21" id="icon_info_circle" xmlns="http://www.w3.org/2000/svg"><path d="M10.281 13.456c-.296 0-.493-.197-.493-.493V10.79c0-.296.197-.493.493-.493a1.98 1.98 0 0 0 1.975-1.975 1.98 1.98 0 0 0-1.975-1.974 1.98 1.98 0 0 0-1.974 1.974c0 .296-.198.494-.494.494s-.494-.198-.494-.494a2.97 2.97 0 0 1 2.962-2.962 2.97 2.97 0 0 1 2.962 2.962c0 1.481-1.086 2.666-2.468 2.913v1.728c0 .296-.198.493-.494.493z" fill="#24A98E"/><path d="M10.408 20.967c-5.5 0-10-4.5-10-10s4.5-10 10-10c2.25 0 4.35.75 6.15 2.1.2.15.25.5.1.7-.15.2-.5.25-.7.1a8.988 8.988 0 0 0-5.55-1.9c-4.95 0-9 4.05-9 9s4.05 9 9 9 9-4.05 9-9c0-1.6-.45-3.2-1.25-4.6-.15-.25-.05-.55.15-.7.25-.15.55-.05.7.15.9 1.6 1.4 3.35 1.4 5.15 0 5.5-4.5 10-10 10z" fill="#24A98E"/><path d="M10.281 17.01c-.296 0-.493-.197-.493-.493v-1.333c0-.296.197-.494.493-.494s.494.198.494.494v1.333c0 .296-.198.493-.494.493z" fill="#24A98E"/></symbol><symbol viewBox="0 0 80 106" id="icon_left_double_angle" xmlns="http://www.w3.org/2000/svg"><g fill="#A666FF" fill-rule="nonzero"><path d="M53 2.088V.674L.674 53 53 105.326v-1.414L2.088 53z"/><path d="M29.295 52.5L79.5 2.295V.881L27.881 52.5 79.5 104.119v-1.414z"/></g></symbol><symbol viewBox="0 0 18 28" id="icon_load" xmlns="http://www.w3.org/2000/svg"><defs><path d="M25.02 12l-.017-5.003a1 1 0 0 0-1-.997H23a1 1 0 0 0-1 1v5h-4V7a1 1 0 0 0-1-1h-1a1 1 0 0 0-1 1v5c-2-.02-4-.02-4 1.98v4.98c0 1.973 2.333 4.987 7 9.04v5a1 1 0 0 0 1 1h2a1 1 0 0 0 1-1v-5c4.667-4.027 7-7.033 7-9.02v-5c0-2-2-2-3.98-1.98z" id="ara"/></defs><use xlink:href="#ara" transform="translate(-11 -6)"/></symbol><symbol fill="none" viewBox="0 0 21 21" id="icon_login" xmlns="http://www.w3.org/2000/svg"><path fill-rule="evenodd" clip-rule="evenodd" d="M.58 10.54c0-.252.088-.466.265-.644a.876.876 0 0 1 .643-.266h10.533L9.024 6.64a.878.878 0 0 1-.263-.646c0-.26.086-.477.26-.65a.881.881 0 0 1 .649-.26c.256 0 .471.088.646.263l4.546 4.546c.175.175.263.39.263.646a.878.878 0 0 1-.263.646l-4.546 4.546a.91.91 0 0 1-.646.263.876.876 0 0 1-.643-.267.876.876 0 0 1-.266-.642c0-.256.088-.472.263-.647l2.997-2.99H1.488a.876.876 0 0 1-.643-.266.876.876 0 0 1-.266-.643zm12.726-9.092c0-.25.089-.465.267-.643a.876.876 0 0 1 .642-.266h3.637c.757 0 1.399.263 1.924.789.535.535.803 1.174.803 1.917v14.567c0 .743-.265 1.387-.796 1.932-.544.53-1.188.795-1.931.795h-3.637a.876.876 0 0 1-.642-.266.876.876 0 0 1-.267-.643c0-.25.089-.465.267-.643a.876.876 0 0 1 .642-.266h3.637a.876.876 0 0 0 .642-.266.876.876 0 0 0 .267-.643V3.245a.845.845 0 0 0-.267-.628.888.888 0 0 0-.642-.26h-3.637a.876.876 0 0 1-.642-.266.876.876 0 0 1-.267-.643z" fill="#fff"/></symbol><symbol viewBox="0 0 25 25" id="icon_minus_circle" xmlns="http://www.w3.org/2000/svg"><defs><path d="M20.5 32C26.851 32 32 26.851 32 20.5S26.851 9 20.5 9 9 14.149 9 20.5 14.149 32 20.5 32zm0 1C13.596 33 8 27.404 8 20.5S13.596 8 20.5 8 33 13.596 33 20.5 27.404 33 20.5 33zm-4.999-13a.506.506 0 0 0-.501.5c0 .276.23.5.501.5H25.5a.506.506 0 0 0 .501-.5c0-.276-.23-.5-.501-.5h-10z" id="ata"/></defs><use xlink:href="#ata" transform="translate(-8 -8)"/></symbol><symbol fill="none" viewBox="0 0 12 16" id="icon_password" xmlns="http://www.w3.org/2000/svg"><path fill-rule="evenodd" clip-rule="evenodd" d="M10.416 5.489H9.7V4.054A3.589 3.589 0 0 0 6.11.466a3.589 3.589 0 0 0-3.587 3.588v1.435h-.718A1.44 1.44 0 0 0 .371 6.924v7.175c0 .789.646 1.435 1.435 1.435h8.61a1.44 1.44 0 0 0 1.435-1.435V6.924a1.44 1.44 0 0 0-1.435-1.435zm-4.305 6.457a1.44 1.44 0 0 1-1.435-1.435c0-.789.646-1.435 1.435-1.435.79 0 1.435.646 1.435 1.435a1.44 1.44 0 0 1-1.435 1.435zM8.335 5.49H3.887V4.054c0-1.227.997-2.225 2.224-2.225 1.227 0 2.224.998 2.224 2.225v1.435z" fill="#fff"/></symbol><symbol viewBox="0 0 20 20" id="icon_plus" xmlns="http://www.w3.org/2000/svg"><defs><path d="M19 19v-8.008c0-.537.448-.992 1-.992.556 0 1 .444 1 .992V19h8.008c.537 0 .992.448.992 1 0 .556-.444 1-.992 1H21v8.008c0 .537-.448.992-1 .992-.556 0-1-.444-1-.992V21h-8.008c-.537 0-.992-.448-.992-1 0-.556.444-1 .992-1H19z" id="ava"/></defs><use xlink:href="#ava" transform="translate(-10 -10)" fill-rule="evenodd"/></symbol><symbol viewBox="0 0 25 25" id="icon_plus_circle" xmlns="http://www.w3.org/2000/svg"><defs><path d="M20.5 32C26.851 32 32 26.851 32 20.5S26.851 9 20.5 9 9 14.149 9 20.5 14.149 32 20.5 32zM20 20h-4.499a.506.506 0 0 0-.501.5c0 .276.23.5.501.5H20v4.499c0 .271.224.501.5.501.268 0 .5-.224.5-.501V21h4.499a.506.506 0 0 0 .501-.5c0-.276-.23-.5-.501-.5H21v-4.499a.504.504 0 0 0-.5-.501c-.268 0-.5.224-.5.501V20zm.5 13C13.596 33 8 27.404 8 20.5S13.596 8 20.5 8 33 13.596 33 20.5 27.404 33 20.5 33z" id="awa"/></defs><use xlink:href="#awa" transform="translate(-8 -8)"/></symbol><symbol viewBox="0 0 26 22" id="icon_pv" xmlns="http://www.w3.org/2000/svg"><defs><path d="M8 9h3a1 1 0 0 1 1 1v8a1 1 0 0 1-1 1H8a1 1 0 0 1-1-1v-8a1 1 0 0 1 1-1zm7 0h3a1 1 0 0 1 1 1v8a1 1 0 0 1-1 1h-3a1 1 0 0 1-1-1v-8a1 1 0 0 1 1-1zm7 0h3a1 1 0 0 1 1 1v8a1 1 0 0 1-1 1h-3a1 1 0 0 1-1-1v-8a1 1 0 0 1 1-1zm7 0h3a1 1 0 0 1 1 1v8a1 1 0 0 1-1 1h-3a1 1 0 0 1-1-1v-8a1 1 0 0 1 1-1zM8 21h3a1 1 0 0 1 1 1v8a1 1 0 0 1-1 1H8a1 1 0 0 1-1-1v-8a1 1 0 0 1 1-1zm7 0h3a1 1 0 0 1 1 1v8a1 1 0 0 1-1 1h-3a1 1 0 0 1-1-1v-8a1 1 0 0 1 1-1zm7 0h3a1 1 0 0 1 1 1v8a1 1 0 0 1-1 1h-3a1 1 0 0 1-1-1v-8a1 1 0 0 1 1-1zm7 0h3a1 1 0 0 1 1 1v8a1 1 0 0 1-1 1h-3a1 1 0 0 1-1-1v-8a1 1 0 0 1 1-1z" id="axa"/></defs><use xlink:href="#axa" transform="translate(-7 -9)"/></symbol><symbol viewBox="0 0 132 106" id="icon_right_double_angle" xmlns="http://www.w3.org/2000/svg"><g fill="#A666FF" fill-rule="nonzero"><path d="M79 103.912v1.414L131.326 53 79 .674v1.414L129.912 53z"/><path d="M102.705 53.5L52.5 103.705v1.414L104.119 53.5 52.5 1.881v1.414z"/></g></symbol><symbol fill="none" viewBox="0 0 23 19" id="icon_settings" xmlns="http://www.w3.org/2000/svg"><path d="M.262 14.993h13.794a1.95 1.95 0 0 1 1.784-1.168 1.95 1.95 0 0 1 1.784 1.168h4.447v1.558h-4.447a1.95 1.95 0 0 1-1.784 1.168 1.95 1.95 0 0 1-1.784-1.168H.262M.262 8.372h4.447a1.95 1.95 0 0 1 1.784-1.168 1.95 1.95 0 0 1 1.784 1.168h13.794V9.93H8.277a1.95 1.95 0 0 1-1.784 1.168A1.95 1.95 0 0 1 4.709 9.93H.262M.262 1.752h13.794A1.95 1.95 0 0 1 15.84.583a1.95 1.95 0 0 1 1.784 1.169h4.447v1.557h-4.447a1.95 1.95 0 0 1-1.784 1.169 1.95 1.95 0 0 1-1.784-1.169H.262" fill="#24A98E"/></symbol><symbol viewBox="0 0 16 26" id="icon_storage" xmlns="http://www.w3.org/2000/svg"><defs><path d="M27 10h-2V8a1 1 0 0 0-1-1h-8a1 1 0 0 0-1 1v2h-2a1 1 0 0 0-1 1v20c0 1.103.897 2 2 2h12c1.103 0 2-.897 2-2V11a1 1 0 0 0-1-1zm-8 17v-5h-3l5-7v5h3l-5 7z" id="baa"/></defs><use xlink:href="#baa" transform="translate(-12 -7)"/></symbol><symbol fill="none" viewBox="0 0 9 8" id="icon_triangle_down" xmlns="http://www.w3.org/2000/svg"><path fill-rule="evenodd" clip-rule="evenodd" d="M4.135 6.688L.358.938h7.553l-3.776 5.75z" fill="#24A98E"/></symbol><symbol viewBox="0 0 24 24" id="icon_user" xmlns="http://www.w3.org/2000/svg"><path d="M12 5.9a2.1 2.1 0 1 1 0 4.2 2.1 2.1 0 0 1 0-4.2m0 9c2.97 0 6.1 1.46 6.1 2.1v1.1H5.9V17c0-.64 3.13-2.1 6.1-2.1M12 4C9.79 4 8 5.79 8 8s1.79 4 4 4 4-1.79 4-4-1.79-4-4-4zm0 9c-2.67 0-8 1.34-8 4v3h16v-3c0-2.66-5.33-4-8-4z"/><path d="M0 0h24v24H0z" fill="none"/></symbol><symbol fill="none" viewBox="0 0 121 25" id="verbund_logo" xmlns="http://www.w3.org/2000/svg"><path fill-rule="evenodd" clip-rule="evenodd" d="M56.5 8.793c1.303-.485 2.231-.647 3.369-.647 4.426.007 7.31 3.079 7.318 7.878-.011 5.602-3.55 8.482-10.558 8.496-1.64 0-2.96-.125-5.096-.442V0h4.825v8.848l.143-.055zM18.088 1.661l.172-.484h5.366l-.304.806c-1.178 3.334-2.65 7.196-4.285 11.25-1.375 3.467-2.616 6.41-4.351 10.336l-.302.755H8.998l-.3-.78a221.3 221.3 0 0 1-4.058-10.47A287.753 287.753 0 0 1 .814 2.117L.5 1.177h5.565l.14.48c.148.445.288.89.428 1.334.138.44.277.879.423 1.319l.088.26v.002c.187.557.333.991.504 1.474l1.308 3.99 1.603 4.681c.75 2.226.813 2.47 1.24 4.6h.207c.36-1.732.584-2.405 1.338-4.5l1.765-4.744c.141-.383.27-.741.447-1.235.111-.308.24-.669.404-1.121l.574-1.616.001-.003c.647-1.818 1.17-3.287 1.552-4.437zm3.052 14.82c.01-5.091 3.154-8.36 7.977-8.368 4.626.01 7.243 2.906 7.255 8.107 0 .262 0 .717-.033 1.268l-.024.261H25.793l.01.114c.162 2.06 1.782 3.184 4.457 3.173 1.944 0 3.738-.492 5.26-1.448v3.634a12.67 12.67 0 0 1-5.978 1.463c-5.326-.011-8.392-3.017-8.403-8.204zm4.711-2.019l.02-.123c.26-1.774 1.495-2.908 3.246-2.903 1.684-.01 2.697 1.046 2.852 2.909l.01.117H25.85zm35.204 5.124c-.817.737-2.041 1.09-3.673 1.09H56.358v-8.294l.071-.024a5.652 5.652 0 0 1 2.065-.368c1.182-.001 2.134.396 2.781 1.136.647.742.987 1.818.987 3.158.002 1.458-.391 2.566-1.208 3.302zm15.907 4.937c-2.704 0-4.538-.523-5.685-1.576-1.18-1.09-1.6-2.412-1.605-5.386V8.506h4.827v9.122c.002 1.037.145 1.746.573 2.201.432.455 1.112.62 2.119.62.696 0 1.422-.1 2.082-.23l.086-.02V8.507h4.825v15.246l-.532.085c-2.713.49-4.635.683-6.69.686zM95.486 8.146c-2.454 0-4.876.352-7.813 1.121v15.057h4.828V12.376l.075-.022c1.021-.295 1.66-.364 2.354-.364.911 0 1.56.181 1.979.635.417.453.578 1.145.58 2.12l-.002 9.579h4.829v-9.772c-.002-2.516-.321-3.645-1.345-4.703-1.08-1.116-2.916-1.703-5.485-1.703zm9.326 8.368c.008-5.088 3.343-8.36 8.565-8.368.812 0 1.42.065 2.163.259l.135.035V0h4.825v23.85c-2.536.48-4.405.671-6.437.673-6.124-.017-9.24-2.729-9.251-8.01zm10.864-4.23v8.249l-.092.013c-.725.098-1.188.13-1.749.13-1.311 0-2.343-.374-3.043-1.104-.698-.727-1.054-1.795-1.054-3.155 0-1.392.372-2.502 1.084-3.265.707-.76 1.748-1.162 3.046-1.162.628 0 1.133.069 1.736.268l.072.025zM46.404 8.145c1.24 0 2.14.127 3.123.405v4.04c-.793-.254-1.626-.37-2.568-.37a9.438 9.438 0 0 0-3.208.529l-.07.024v11.55h-4.827V9.65c2.52-.992 5.133-1.503 7.55-1.503z" fill="#fff"/></symbol></svg>